<?xml version="1.0" standalone="no"?><!DOCTYPE svg PUBLIC "-//W3C//DTD SVG 1.1//EN" "http://www.w3.org/Graphics/SVG/1.1/DTD/svg11.dtd"><svg t="1552100294457" class="icon" style="" viewBox="0 0 1024 1024" version="1.1" xmlns="http://www.w3.org/2000/svg" p-id="7298" xmlns:xlink="http://www.w3.org/1999/xlink" width="200" height="200"><defs><style type="text/css"></style></defs><path d="M437.418667 273.635556c0.170667-0.227556 0.455111 1.194667 0.512 0.967111 0.398222-0.910222 0.170667-0.682667-0.512-1.365334l0.455111-1.536h-3.470222c0.682667 0 0.853333 3.413333 3.015111 1.934223zM357.091556 360.504889c-0.455111 0.568889-0.625778 1.194667-0.455112 1.820444 0.056889 0.568889 0.341333 1.024 0.739556 1.251556a13.084444 13.084444 0 0 0 2.787556 1.820444l0.967111 0.568889c0.227556 0.170667 0.341333 0.170667 0.625777 0.227556l0.227556 0.056889h0.512a2.048 2.048 0 0 1 0.625778-0.113778l2.503111-0.967111v-5.916445l-3.242667-0.568889-0.967111-0.113777-0.739555-0.056889-1.194667-0.056889c-0.739556 0.056889-0.853333 0.341333-2.389333 2.048zM559.445333 235.121778l-0.113777 0.512 0.455111-0.512zM558.023111 237.454222c-3.982222 3.015111-9.443556 8.305778-9.443555 12.8v0.455111c0 0.227556 5.347556-8.021333 5.461333-7.907555a162.133333 162.133333 0 0 0 3.982222-5.347556zM375.751111 357.888v0.341333H375.466667a36.010667 36.010667 0 0 1 0.398222 4.721778 23.04 23.04 0 0 1 1.365333 0.341333H389.802667c0.625778 0 1.137778 0.341333 1.422222 0.056889 0.113778 0.056889 0.227556 0.512 0.284444 0.568889 0.341333 0.227556 0.625778 0.682667 0.967111 1.024 0.512 0.284444 0.910222 0.568889 1.365334 0.568889l1.592889-0.056889c-0.568889-0.853333-1.137778-1.479111-1.649778-1.592889-0.796444-0.113778-1.536-2.730667-2.048-2.844444-0.227556-0.056889-0.739556-1.251556-1.024-1.251556-0.512 0.113778-1.024-0.284444-1.251556 0.170667-0.625778-0.455111-1.308444-1.194667-1.820444-1.649778l-1.365333-1.194666a78.165333 78.165333 0 0 0-10.296889-0.625778h-1.024a11.662222 11.662222 0 0 1 0.284444 1.365333h0.512zM365.681778 357.489778c0-0.341333 2.389333-0.568889 4.835555-0.739556l-1.763555-0.967111-0.227556-0.113778-2.844444 1.763556v0.056889z" p-id="7299" fill="#ffffff"></path><path d="M371.882667 357.546667v0.625777l1.251555-0.113777a8.078222 8.078222 0 0 0-0.398222-1.422223l-2.275556 0.113778a8.192 8.192 0 0 1 1.422223 0.796445zM475.363556 208.384v1.080889c0 0.113778 0.625778-0.739556 1.308444-1.763556l-0.568889 0.227556c0.056889 0.170667-0.739556 0.341333-0.739555 0.455111zM366.193778 344.860444h0.739555c0.625778 0 1.137778-1.024 1.479111-1.877333l-0.227555-1.137778c-0.284444-0.967111-1.080889 3.015111-1.991111 3.015111z" p-id="7300" fill="#ffffff"></path><path d="M505.457778 163.953778a201.557333 201.557333 0 1 0 0 403.171555 201.557333 201.557333 0 0 0 0-403.171555z m133.290666 120.149333c0.284444-0.227556 0.512-0.568889 0.512-0.853333l0.113778-1.024 0.170667-2.104889 0.455111 0.455111c3.299556 2.958222 3.299556 2.958222 4.039111 2.958222 0.341333 0 0.568889 0 0.796445-0.170666 0.455111-0.113778 0.568889-0.341333 0.796444-0.512 0.284444-0.512 0.682667-0.853333 0.796444-1.251556 0.170667 0.113778 0.341333 0.170667 0.455112 0.398222l5.176888 3.527111c0.398222 0.625778 0.796444 1.251556 1.080889 1.934223l-1.194666 0.170666c-2.275556-1.479111-2.275556-1.592889-2.901334-1.592889l-0.682666 0.113778a85.333333 85.333333 0 0 1-3.584 1.251556 47.217778 47.217778 0 0 1-3.015111 1.137777l-0.967112-0.056888-1.991111-2.218667-0.113777-0.170667a3.242667 3.242667 0 0 0 0.170666-1.024l-0.113778-0.967111z m-0.455111 16.896c0-0.227556-0.056889-0.455111-0.341333-0.739555l-0.227556-0.398223c0.113778 0.284444 0.341333 0.398222 0.568889 0.739556 0.398222 0.398222 0.739556 0.853333 0.910223 0.853333l1.592888 3.470222c-0.853333-0.113778-1.763556-0.113778-2.730666-0.170666h-0.796445l0.682667-0.739556a1.422222 1.422222 0 0 0 0.568889-1.137778c0-0.853333-0.170667-1.365333-0.227556-1.877333z m-39.537777-47.217778l0.682666-0.170666c0.682667-0.227556 1.194667-0.853333 1.137778-1.592889l-0.113778-3.527111 0.568889-1.365334 0.853333-3.697777v-0.398223l2.844445 1.251556c0.227556 0.056889 0.568889 0.113778 1.024 0 0.284444 1.024 0.682667 1.649778 1.080889 2.389333l0.341333 0.398222 0.568889 0.398223a1.592889 1.592889 0 0 0 0 1.024l1.137778 3.299555a8.704 8.704 0 0 0-3.982222 0.284445l-1.080889 0.227555-0.398223 0.113778-3.925333 1.536c-0.227556 0.056889-0.227556 0.113778-0.341333 0.227556l-0.853334-0.170667c0-0.113778 0.227556-0.170667 0.455112-0.227556z m-11.264 39.822223l1.763555-0.853334c0.512-0.227556 0.853333-0.739556 0.853333-1.194666l0.398223-2.901334 0.170666-0.398222 4.551111 0.625778a2.161778 2.161778 0 0 0 0.910223-0.227556l2.161777-1.479111h0.512l-0.455111 0.512c-0.170667 0.227556-0.227556 0.227556-0.341333 0.512 0 0.113778-0.113778 0.625778 0 1.592889l0.455111 1.706667 0.170667 0.341333c0.113778 0.341333 0.284444 0.512 0.512 0.739556-0.113778 0.284444-0.113778 0.625778-0.113778 1.137777l0.284444 0.910223c0.284444 1.080889 0.398222 2.104889 0.625778 3.128888a2.275556 2.275556 0 0 0 1.877334 1.706667h0.853333l0.398222-0.056889 2.218667-0.910222c0.910222-0.284444 1.365333-1.024 1.365333-1.934222 0-0.341333 0-0.341333-1.080889-3.754667a1.991111 1.991111 0 0 0-1.308444-1.308444c0-0.398222 0.227556-0.910222 0.455111-1.479111v-0.170667l2.787555 2.787555 0.568889 0.398223 5.916445 3.299555 0.398222 0.455111 0.512 1.251556-3.754667-0.625778a4.152889 4.152889 0 0 0-1.365333 0.398222c-0.625778 0.227556-1.024 0.967111-0.967111 1.649778 0 0.512 0.227556 0.910222 0.341333 1.592889 0 0.227556 0.113778 0.568889 0.398222 0.739556 1.024 1.365333 2.901333 2.503111 4.380445 3.527111a1.137778 1.137778 0 0 1 0.512 0.284444h-0.056889c-1.080889 0.113778-1.763556 1.024-1.763556 2.104889-0.227556-0.739556-0.341333-1.422222-0.455111-2.104889a2.218667 2.218667 0 0 0-0.625777-0.967111l-1.251556-1.024-2.616889-1.536c-0.341333-0.227556-0.853333-0.227556-1.137778-0.227556l-0.796444 0.056889-2.446222 0.853334-14.620445 0.910222a2.958222 2.958222 0 0 0-0.625778 0.113778l-9.443555 3.470222h-3.584l0.284444-0.341333 3.584-0.512a0.568889 0.568889 0 0 0 0.398223-0.170667l0.398222-0.113778 0.398222-0.227555 3.015111-2.616889 0.739556-0.739556 1.365333-1.479111c0.398222-0.398222 0.625778-1.080889 0.398222-1.649778l-1.251555-3.868444 0.284444-0.796445 1.365333-0.682666h1.137778c-0.056889-0.284444 0.284444-0.455111 0.341334-0.455111z m-7.623112-17.009778l5.233778 3.584v0.739555l-5.404444-3.242666c-0.739556-0.113778-2.503111-1.763556-4.835556-3.299556-1.194667-0.398222-3.128889-1.080889-3.015111-0.967111a11.832889 11.832889 0 0 1-2.048-1.422222 10.069333 10.069333 0 0 0-2.616889-0.398222h17.863111v1.024c0 0.568889-7.338667 1.137778-8.874666 1.706666l3.697777 2.275556z m-116.736-72.476445c0 0.227556 0 0.455111 0.113778 0.625778v0.113778a1.706667 1.706667 0 0 0-0.967111-0.512l0.853333-0.227556z m-11.491555 16.270223a14.449778 14.449778 0 0 0 2.218667 0.739555l-2.218667 1.877333-0.284445 0.284445-1.137777 1.479111h-3.413334l4.835556-4.380444z m-3.640889 16.042666l-3.754667-4.152889-0.341333-0.227555-1.365333-0.682667c0.910222 0.455111 1.365333 0.284444 4.892444-0.341333l0.455111 0.341333-0.284444 0.398222c-1.080889 1.592889-0.625778 1.934222 4.664889 5.461334l0.056889 0.113777-5.176889 2.787556-0.455111-0.341333 1.194666-1.194667a1.592889 1.592889 0 0 0 0.113778-2.161778z m-7.793778-9.500444v-0.625778l5.063111-0.967111-1.024 0.625778-0.341333 0.341333-2.048 2.389333c-0.227556 0.284444-0.682667 1.137778-0.227556 1.991111 0.170667 0.170667 0.341333 0.398222 0.625778 0.512l-2.161778-1.137777-0.455111-0.113778 0.568889-3.015111z m-31.118222 14.563555a1.308444 1.308444 0 0 0 0.568889-1.080889l0.056889-0.739555 5.176889-3.754667 5.745777-2.275555 4.494223-1.763556a1.365333 1.365333 0 0 0 0.625777-0.341333c0-0.113778 0.227556-0.284444 0.341334-0.341334 0.284444-0.170667 0.455111-0.512 0.568889-0.853333h2.673777l-0.056888 0.512a1.649778 1.649778 0 0 0 1.024 1.763556 7.054222 7.054222 0 0 0 2.332444 0.341333 2.389333 2.389333 0 0 0 0.796444-0.170667l1.080889-0.398222 0.284445 0.056889a35.441778 35.441778 0 0 0-3.072 3.584l-1.763556 2.332444-3.356444 1.194667a1.365333 1.365333 0 0 0-0.796445 0.682667l-3.697777 5.916444-7.452445 2.616889a1.592889 1.592889 0 0 0-1.024 0.682667l-0.398222 0.739555v-0.056889l-2.161778-3.413333-1.251555-4.039111c-0.056889-0.455111-0.455111-0.796444-0.853334-1.024l0.113778-0.170667z m-74.069333 146.204445l-5.916445-7.566222v-0.170667l4.892445-0.113778 1.024 7.850667 3.185777 4.039111 2.844445 0.455111 2.218667 1.137778c0.398222 0.512 1.877333 0.739556 2.446222 0.398222l0.682666-7.111111 1.763556-5.233778h0.113778c0.113778 0 0.455111 7.793778 0.739555 8.021333 0.341333 0.113778 0.568889 3.868444 0.739556 3.868445 0.227556 0.113778 0.398222 1.934222 0.512 1.991111l2.104889 3.697778c0.455111 0.625778 1.194667 1.308444 1.934222 1.080889l2.161778-0.796445a1.137778 1.137778 0 0 0 0.796444-0.625778l0.853334 1.308445c0.625778 4.380444 1.422222 8.817778 2.275555 13.141333l-0.625778 2.958222-0.796444 2.901334-1.308445 6.371555a0.967111 0.967111 0 0 0 0 0.568889l0.056889 0.512c0.398222 1.479111 0.739556 2.958222 1.251556 4.380445l0.113778 0.512 0.398222 0.625777a2.844444 2.844444 0 0 1 0.682667 0.625778l0.113777 0.056889-0.113777 0.341333a1.308444 1.308444 0 0 0-0.227556 1.024c0 0.113778 0.113778 0.625778 0.227556 0.796445l3.185777 6.997333a0.739556 0.739556 0 0 0 0.284445 0.341334l6.314666 5.290666 3.015112 4.721778a3.982222 3.982222 0 0 0 0.398222 0.512 177.095111 177.095111 0 0 0 13.141333 15.701333l8.647111 4.664889 0.341334 0.056889 4.437333 2.673778 0.853333 0.853333c3.470222 5.233778 8.476444 12.856889 12.572445 18.545778 6.883556 8.647111 7.395556 12.629333 13.425777 18.887111-47.502222-24.405333-84.195556-71.111111-91.761777-126.293333z m286.663111 50.631111c0 0.227556-6.940444 0.682667-6.940445 0.910222 0.056889 0.227556-3.470222 0.512-3.413333 0.682667 0.170667 0.284444-1.592889 0.568889-1.479111 0.910222l-0.682667 1.194667-1.706666 2.901333-2.104889 10.979556-3.356445 2.901333-1.763555 4.437333-1.080889 0.341334-0.625778 0.455111c-0.284444 0.170667-0.398222 0.455111-0.568889 0.682666-0.796444 2.104889-6.826667 3.925333-7.566222 5.802667-0.113778 0.170667-5.347556 0.625778-5.347556 0.796444v0.568889l6.200889 4.039111c-1.763556 6.485333-1.308444 13.824-3.185778 18.887112-0.056889 0 1.194667 0.227556 1.194667 0.341333l0.455111 1.251555-1.137778 3.697778c-0.682667 1.308444-0.796444 1.820444-1.820444 3.982222l-1.479111 1.536c-1.024 1.080889-1.649778 2.503111-2.332445 3.811556l-0.568888 1.080889a1.251556 1.251556 0 0 0 0 1.251555 1.479111 1.479111 0 0 0 0.853333 0.967112 9.329778 9.329778 0 0 1 0.625778 0.170666 166.4 166.4 0 0 1-123.050667 13.482667c-0.682667-0.682667-1.194667-1.365333-1.820444-2.104889a0.796444 0.796444 0 0 0-0.512-0.455111l-0.398223-0.227556a1.706667 1.706667 0 0 0 0.113778-1.763555c-0.113778-0.227556-0.113778-0.455111-0.341333-0.568889l9.386666-1.422222c0.398222-0.170667 8.135111-0.739556 8.135112-1.194667v-0.568889l-7.850667-3.356444c-0.056889-0.284444-3.868444-0.625778-4.152889-0.796445-0.341333-0.398222-2.446222-0.625778-2.901333-0.853333l-0.568889-0.113778c0.341333-0.056889 0.341333-0.512 0.512-0.796444v-0.455111l0.682666-2.56 0.284445-0.398223c0.170667-0.227556 0.227556-0.455111 0.284444-0.682666l0.682667-3.242667 6.485333-0.227556c0.056889-0.170667 6.542222-0.568889 6.542223-0.739555v-2.332445c0-0.455111-5.575111-1.080889-5.859556-1.649777l-6.144-8.078223c3.584-1.934222 7.509333-4.380444 10.865778-6.144 0.398222-0.227556 1.137778-0.625778 1.137778-1.194666v-2.616889c0-3.640889-0.056889-7.850667 0.512-11.264 0.056889-0.170667-0.625778-0.568889-0.625778-0.739556l-2.503111-9.272889 0.853333-1.080888 1.365333-0.625778c0.170667-0.113778 0.341333-0.170667 0.455111-0.341334l0.284445-0.341333c0.170667-0.113778-1.479111-0.284444-1.365333-0.341333l1.024-5.063111v-0.113778l4.778666-5.518222c0.170667-0.113778 1.080889-0.739556 1.080889-0.910223 0.113778-0.170667 0.398222-0.341333 0.398222-0.455111l-1.422222-8.704c-0.113778-0.512-0.284444-0.853333-0.682667-1.080889a487.367111 487.367111 0 0 0-15.872-7.736888l-12.231111-1.706667-4.266666-1.649778-4.721778-3.527111-0.512-0.170667-1.080889-0.455111 0.113778-0.227555c0.284444-0.512 0.113778-1.194667 0-1.706667l-0.455111-0.455111c-0.227556-0.341333-0.853333-0.341333-1.251556-0.341333h-0.227555l-3.584-3.242667-4.494223-6.542222c-0.056889-0.227556-0.113778-0.512-0.341333-0.739556l-0.455111-0.512a1.763556 1.763556 0 0 0-0.625778-0.512l-7.68-3.470222-2.389333-1.877333c-0.341333-0.341333-0.739556-0.398222-1.194667-0.398223l-4.664889 0.682667-5.745778-5.461333 0.682667-0.056889 0.455111-0.113778c0.568889-0.227556 0.853333-0.796444 0.910222-1.308444 0.113778-1.137778 0.113778-2.048 0.113778-2.844445l-3.299555-1.536c0.227556-0.227556-4.494222-0.682667-4.494223-1.137778v-0.796444c0-0.853333 2.787556-1.479111 1.991112-1.592889-2.048-0.113778-1.991111-0.170667-1.991112-0.227556v-0.227555c0-0.341333 1.479111-0.341333 0.796445-2.275556 0.625778-0.398222 1.820444-1.024 1.820444-1.820444 0-0.341333 0.341333-0.398222-0.625777-2.958222-0.056889-0.398222-0.056889-1.024-0.455112-2.275556 0.170667-0.113778 0.512-0.341333 0.739556-0.625778 0.455111-0.910222 0.284444-1.536-0.568889-4.152889l-0.170667-0.227555a1.479111 1.479111 0 0 0 0-1.194667 2.161778 2.161778 0 0 0 1.365334-2.048c0-0.341333-0.341333-0.341333-1.194667-3.128889-0.284444-0.625778-1.649778-1.024-1.649778-1.137777 0 1.024 0.227556 8.419556-0.113777 8.021333-0.455111-0.512-0.568889 9.159111-1.251556 9.159111h-0.512c-0.227556 0-0.739556-11.377778-1.706667-11.662222-0.113778 0-0.341333-0.113778-0.455111-0.284445v2.275556l-0.739555 1.024c0.113778 1.194667 0.739556 1.649778 0.739555 1.820444v1.080889h0.113778a2.161778 2.161778 0 0 0-0.284444 1.194667l0.056888 2.616889c0.113778 0.625778 0.455111 1.137778 0.910223 1.479111l0.056889 1.479111 0.113777 0.113778c-0.284444 0.341333-0.739556 0.853333-0.739555 1.422222 0 0.682667-0.170667 1.308444-0.170667 2.048v2.161778l1.308445 1.479111-1.308445-1.024v-0.398222l-1.137778-1.251556c-0.113778-0.113778 0.056889-0.170667-0.056889-0.170667l-5.575111-1.194666H390.371556l-0.455112 0.113778-1.024 0.512-6.030222-1.536-3.754666-4.494223a1.365333 1.365333 0 0 0-0.512-0.455111l-0.455112-0.170666c-0.568889-0.398222-1.308444-0.227556-1.820444 0.227555l-1.194667 1.080889-0.568889-0.341333v0.796444h-0.796444c0.170667 0 0.341333-0.284444 0.512-0.853333l-0.170667-0.056889-1.080889-0.568889a27.306667 27.306667 0 0 1 0.056889 1.536h-4.835555l-4.266667 2.332444-0.625778 0.568889c-0.170667 0.170667-0.170667 0.341333-0.227555 0.512l-2.332445 5.233778-2.104889-1.422222c-0.227556-0.113778-0.512-1.592889-0.682666-1.649778l-0.512-1.365333h-0.398222l-4.494223 2.104889-0.625777-2.104889 1.365333-12.856889v-1.024c0-0.284444-0.910222-0.625778-1.080889-0.853333-0.796444-1.251556-2.446222-2.673778-3.527111-3.868445l-0.625778-0.512-0.853333-0.568889c-0.170667-0.113778 4.835556-0.170667 4.608-0.170666l1.365333-0.796445V361.642667l-0.113778-1.649778a4.551111 4.551111 0 0 0-0.512-0.227556c-1.365333-0.967111-2.048-2.787556-1.877333-4.664889-0.113778 0.113778-0.455111 0.170667-0.512 0.227556a1.592889 1.592889 0 0 1-1.251556-0.056889c-0.625778-0.455111-0.967111-0.682667-1.194666-1.422222-0.341333-1.820444 0.967111-2.048 1.024-2.56l1.536-0.739556c-0.113778-0.056889 2.332444-0.170667 2.161778-0.284444l0.625777 9.784889a3.413333 3.413333 0 0 0 1.592889 0.455111c1.536 0 2.844444-0.967111 3.640889-2.389333-0.853333-0.341333-1.877333-0.853333-1.934222-1.365334l-3.072-1.365333v-0.967111l2.389333-0.739556c0.170667 0.739556 3.470222 1.592889 3.299556 2.446222a4.892444 4.892444 0 0 1-0.682667 1.991112c0.398222 0.170667 0.739556 0.284444 0.967111 0.455111l0.739556 0.056889 0.227555-0.056889 1.024 0.113777h4.152889v-4.835555c0 0.113778 2.275556 1.422222 2.844445 1.877333l1.251555-0.853333 2.275556-0.739556c-0.113778-0.056889 0.341333 1.308444 0.739555 2.56l2.389334-0.113777c-0.170667-0.625778-0.341333-1.308444-0.568889-1.820445-0.455111-0.910222-1.422222-4.949333-2.332445-4.721778-0.341333 0.113778-0.910222-1.479111-1.479111-0.682666-0.341333 0.625778-0.625778 0.512-0.967111 1.194666l-0.170667-0.056889a265.955556 265.955556 0 0 0-5.347555-3.925333c-2.56-1.706667-5.233778-1.649778-7.281778-3.185778-0.284444-0.170667-0.910222 1.479111-1.194667 1.479111h-0.512l-4.608-0.967111c-0.113778 0-0.284444-0.853333-0.455111-0.853333-0.796444 0.341333-0.796444-0.170667-3.072 4.721778a2.787556 2.787556 0 0 0-0.739555-0.682667c-0.284444-0.113778-0.512-0.341333-0.739556-0.227555l-6.144-6.485334c0.967111-8.419556 2.446222 4.437333 4.608-32.142222h0.512l3.527111 10.695111c0.455111 0.455111 1.308444 4.209778 1.934223 3.868445 1.422222-0.853333 1.934222-0.625778 2.332444-2.161778l4.494222 2.446222-0.568889 13.141333c0 0.625778 0.341333 1.365333 0.910223 1.649778 1.251556 0.739556 2.275556 0.853333 2.901333 0.853333 0.455111 0 0.853333-0.056889 1.080889-0.341333l0.625778-0.625778 0.056888 0.568889 0.682667 3.413334c0.113778 0.568889 0.568889 2.844444 1.877333 2.901333l1.194667-9.329778c0.398222-2.730667 0.853333-11.662222 1.251556-14.279111l3.868444-12.970667h0.341333c0.227556 0 0.455111 3.584 0.682667 3.470223l4.721778-1.251556c2.616889-1.820444 5.518222-2.901333 7.964444-4.494222 0.170667-0.056889 0.341333 0.170667 0.455111 0 0.341333-0.625778 0.512-0.625778 0.625778-0.967111l1.251556-5.290667c0.056889 0 0.113778 0.227556 0.341333 0.341333 0.625778 0.512 1.592889 0.512 2.104889-0.056889l6.769778-6.769777c0.170667-0.056889 0.398222-0.227556 0.455111-0.398223l0.853333-1.479111 7.224889-0.739555c0.398222 0 0.682667-0.227556 0.967111-0.512l1.991111-2.389334a1.592889 1.592889 0 0 0 0.341334-1.592888l-0.113778-6.428445 1.422222-8.021333h1.365333c0.227556 0 0.341333 6.030222 0.512 5.973333 0.056889 0 0.512 2.844444 0.625778 2.787556l5.233778-1.024-0.341333 2.104889c-0.056889 0.455111 0 1.308444 0.341333 1.706666l0.398222 0.739556c0.455111 0.512 1.194667 0.796444 1.763556 0.568889 2.673778-0.967111 5.802667-2.218667 8.760889-3.242667l3.128889-1.194667c0.284444-0.056889 0.512-0.170667 0.625777-0.398222l0.568889-4.096 0.056889-3.640889a207.530667 207.530667 0 0 1-2.389333 2.56l-1.137778-1.308444a21.276444 21.276444 0 0 1 0.455111-1.820445 1.820444 1.820444 0 0 0 1.137778-0.455111l2.275555-2.218666c0.341333-0.284444 0.512-1.080889 0.512-1.592889l-0.056888 2.446222c-0.113778-0.170667-0.227556 2.048-0.512 2.048h0.113777c2.048-2.104889 2.275556-2.161778 2.901334-2.218667 0.967111 0.113778 1.365333 0.170667 1.763555 0.625778 0.341333 0.341333 0.568889 0.910222 0.512 1.365333l-0.056889 0.227556h0.341334a2.275556 2.275556 0 0 1 0.113777-1.251556l0.910223-1.024c-0.341333-0.341333-0.512-0.056889-0.455111-0.568889 0.056889-0.853333 0.739556 0.113778 1.024 0l0.056888 2.844445h-1.649777v0.284444c0.512 0.910222 0.853333 0.967111 5.404444 1.706667l0.398222-0.967111c0.227556 0.227556 0.625778-1.024 1.877334-1.024h1.536c0.455111 0 0.739556-0.170667 1.194666-0.512a2.275556 2.275556 0 0 0 1.308445 0.512h1.706666c0.682667 0 0.682667 1.763556 3.811556-0.455111 0.170667-0.113778 0.625778 0.455111 0.739556-0.227556l0.170666-0.796444c0-0.853333-0.284444-1.080889-0.967111-1.479111l0.398222-0.568889a1.763556 1.763556 0 0 0 0.056889-1.422222c-0.227556-0.625778-0.455111-0.853333-1.706666-1.365334l2.503111-2.104889a2.161778 2.161778 0 0 0 0.568889-2.275555 2.503111 2.503111 0 0 0-0.967112-1.080889l1.592889-2.275556 0.113778-0.113777a1.649778 1.649778 0 0 0 0.170667-1.251556 1.592889 1.592889 0 0 0-1.194667-1.137778l-3.356444-0.853333 0.227555-0.455111 0.967111-3.072 0.113778-0.398222c0.113778-0.625778-7.566222-1.365333-8.192-1.763556l-7.907555-0.284444v-0.341334l7.793777-1.194666c0.682667-4.721778 4.949333-7.111111 4.949334-7.281778 0.113778-0.682667 1.763556-1.365333 1.137777-1.706667l0.625778-0.227555c0.625778-0.227556 1.251556-0.455111 2.616889-2.844445a1.706667 1.706667 0 0 0 0.625778 0.341333l0.910222 0.284445h1.024c0.967111 0 1.080889-0.227556 4.949333-4.266667a3.868444 3.868444 0 0 0 0.967112 0.227556c0.796444 0 1.024-0.227556 7.509333-3.697778 0.056889 0 0.170667-0.170667 0.284444-0.170667 0.284444-0.227556 0.739556-0.853333 0.739556-1.251555 0.113778-0.796444 0.227556-0.853333-3.413333-5.233778l1.820444-1.991111c0.512-1.024 0.512-1.024-2.844444-5.973333a2.446222 2.446222 0 0 0-0.568889-0.512c-0.056889-0.113778-0.227556-0.113778-0.341334-0.227556l-0.227555-0.113778c0.455111-0.227556 0.967111-0.853333 2.104889-2.048 0-0.113778 0-0.170667 0.170666-0.227555a1.365333 1.365333 0 0 0 0.682667 0c1.536-0.341333 3.128889-5.404444 4.494222-6.371556 0.398222-0.113778 0.796444-4.721778 1.194667-4.721778h0.512c0.113778 0 0.398222 4.096 0.512 3.982223l2.389333 1.365333c0.910222-1.308444 3.072-5.347556 3.299556-5.347556h3.925333l1.479111 6.371556 0.341334 3.982222-1.194667 4.835556c-0.113778 0.227556-0.056889 1.536-0.056889 1.820444 0.056889 0.341333 0.170667 1.024 0.512 1.308445a2.048 2.048 0 0 0 0 1.422222 7.054222 7.054222 0 0 0 0.568889 1.137778l0.227555 7.964444c0.113778 0.113778 0.170667 7.793778 0.398223 7.793778h-2.275556c-0.853333 0-0.853333-7.224889-4.266667-4.266667-0.227556 0.227556-0.512-3.072-0.625777-2.730667l-0.113778-1.479111-0.625778 2.275556c-0.056889 0.284444 0 0.056889 0.056889 0.341333 0.113778 0.341333 0.341333 0.341333 0.512 0.625778l-0.056889 0.113778-0.682667 0.227555c-0.113778 0.056889-0.284444 0.056889-0.398222 0.170667a1.820444 1.820444 0 0 0-0.967111 1.137778 1.877333 1.877333 0 0 0 0 0.796444l1.820445 7.111111a1.706667 1.706667 0 0 0 0.568888 0.853334c0.227556 0.227556 0.568889-2.446222 0.796445-2.275556 0.113778 0 0.398222-2.844444 0.625778-2.844444h1.706666l1.024 4.664889c0.056889 0.227556 0.227556 1.820444 0.455111 1.991111 0.512 0.398222 1.194667 1.308444 1.991112 1.194666l3.242666-0.398222c0.227556 0 0.455111 0 0.568889-0.113778l2.389333-2.218666 6.826667-7.111111 4.835556-1.763556c0.170667 0 0.568889-0.227556 0.682666-0.284444l0.625778 1.592888 0.796445 2.389334h0.568888c0.853333 0 1.080889-2.275556 3.811556-4.266667l4.892444 0.512 2.503112 3.697778h0.512l0.796444-4.437333a22.186667 22.186667 0 0 0 4.096-2.332445v-0.227555c0.113778-0.625778 0.568889-1.137778 1.308444-1.365334a20.309333 20.309333 0 0 0 1.649778-0.341333c1.137778-0.682667 2.104889-1.308444 3.128889-1.649778 0.113778 0 0.227556-1.194667 0.341333-1.308444 0.682667 0 1.137778-0.796444 1.308445-1.308445l0.682667-1.592889 1.024-2.275555c0.170667-0.227556 0.170667-0.568889 0.170666-0.910222-0.113778-0.455111-0.113778-0.739556-0.398222-1.024 0.398222-0.227556 0.568889-0.739556 0.796444-1.137778l0.739556-5.233778c0-0.227556 0-0.568889-0.113778-0.853333a1.137778 1.137778 0 0 0 0-1.308445l-1.536-3.072c0.284444-0.056889 0.568889-0.341333 0.739556-0.625778l0.682666 0.113778c0.568889 0.227556 1.137778 0.170667 1.592889-0.227555l1.365334-1.137778a2.332444 2.332444 0 0 0 0.455111-0.739556 178.972444 178.972444 0 0 1 28.330666 8.590223c5.575111 2.332444 10.979556 4.835556 16.213334 7.623111l-0.227556 0.625777-1.536 0.341334a2.844444 2.844444 0 0 0-1.024 0.739555 1.536 1.536 0 0 0-0.284444 0.625778l-0.568889 0.967111a1.934222 1.934222 0 0 0-0.512 0.796445l2.332444 1.080889c-0.113778 0.113778 2.673778 0.625778 2.673778 0.910222v0.568889l-2.901333 0.967111-2.104889 6.144c0 0.056889-0.682667 0.284444-0.682667 0.512-0.227556 0.113778-0.739556 0.227556-0.796444 0.341333l-3.640889 4.266667a1.479111 1.479111 0 0 0-0.113778 1.877333l4.721778 7.054222 0.625778 1.592889c0.227556-0.284444 0.341333-6.940444 0.512-6.826666 1.080889 0.967111 2.787556-5.916444 4.039111-5.916445h0.512l-0.284445 10.069333c-0.113778 0.227556 0 1.706667 0 3.015112h0.113778v0.512a3.413333 3.413333 0 0 0 0.227556 1.422222l1.422222 3.527111c0.113778 0.113778 0.113778 1.308444 0.227555 1.479111l-2.503111 1.251556c-0.284444 0.056889-0.398222 0.455111-0.512 0.625777l-0.455111 0.455111-0.910222 1.194667c1.763556 1.080889 2.446222 1.251556 2.446222 1.536v0.739556l-3.015111 1.479111-2.218667-1.194667 0.227556-0.341333c0-0.113778 0.341333-0.398222 0.398222-0.512l0.967111-0.910222a1.706667 1.706667 0 0 1 1.024-0.455112l0.227556-0.284444a59.619556 59.619556 0 0 1-9.329778-7.338667l6.087111-2.048c-0.113778-0.113778 5.461333-0.512 5.688889-0.625777 0-0.170667 0-0.341333-0.113778-0.512a90.794667 90.794667 0 0 0-4.778666-0.341334s0 0.056889 0 0a186.88 186.88 0 0 1-2.787556-0.227555c-0.455111-0.682667-4.096-0.682667-6.997333-2.048l-2.275556-5.12c-0.455111-0.796444-2.958222-5.347556-3.925333-5.347556h-2.218667a8.135111 8.135111 0 0 0-2.787555 1.365333l-0.341334 7.111112c-0.170667 0-0.739556 4.266667-0.910222 4.380444-0.341333 0.113778-0.682667 2.389333-0.910222 2.616889-0.227556 0.113778-0.341333 1.251556-0.455111 1.251555-0.227556 0.113778-0.455111 0.625778-0.910222 0.853334l-0.398223 0.625778-0.170666 0.170666c-0.853333 0-1.194667 0.455111-2.56 1.820445-0.227556 0.398222-0.398222 1.194667-0.227556 1.649777l0.398222 1.877334c0.170667 0.455111 0.398222 0.682667 1.024 1.137778l-0.170666 0.227555-0.227556 0.568889-0.568889 2.844444a1.820444 1.820444 0 0 0 0.568889 1.592889c0.398222 0.341333 1.137778 0.853333 2.275556 0.682667l4.266666-0.853333 0.398223-0.113778 3.584-1.706667c0.227556-0.113778 0.341333-0.113778 0.455111-0.284444a2.275556 2.275556 0 0 1 0.227555 0.739555l0.113778 0.170667-0.568889 0.341333c-0.227556 0.170667-0.398222 0.284444-0.455111 0.455111l-0.284444 0.512-0.853334 2.104889a5.12 5.12 0 0 0 0.341334 2.616889c0.398222 0.455111 1.024 1.820444 1.991111 1.820445h1.763555c-0.568889 0-0.967111 4.835556-3.015111 4.494222-0.227556-0.056889-0.568889 2.446222-0.682667 2.503111l-0.853333 1.422222c-0.455111 0.056889-0.853333 1.024-1.024 1.536a11.207111 11.207111 0 0 1-0.398222 0.910222l-1.080889 0.455112c-0.455111 0-0.682667 0.284444-0.967111 0.625777l-0.341333 0.398223a2.161778 2.161778 0 0 0-0.455112 1.308444c0.398222 2.048-3.868444 4.721778-3.640888 6.769778l-5.916445 5.973333v0.512c0 0.227556 4.778667 0.398222 4.778667 0.796445 0 0.455111 2.56 0.853333 2.844444 1.080888l2.161778 0.853334 2.048 4.039111c0.398222 0.967111 1.877333 1.536 3.015111 1.308444l3.015111-0.568889 1.308445 1.422223-9.728 8.305777a1.934222 1.934222 0 0 0-0.341334 0.682667c-0.170667 0.170667-0.170667 0.284444-0.227555 0.455111l-1.536 6.656-6.883556 4.892445-3.015111 1.251555c-0.512 0.170667-0.853333 0.455111-0.910222 0.796445-1.251556 2.958222-3.470222 6.485333-5.347556 9.500444l-2.389333 4.096-3.811556 8.248889-0.113777 0.682667a14.677333 14.677333 0 0 1 0.113777 1.991111c0 0.227556 0 0.455111 0.227556 0.625778 0 0.056889 0.113778 0.512 0.227556 0.568888l0.910222 1.536 1.137778 7.793778-4.778667 9.500445a1.479111 1.479111 0 0 0 0.284444 1.820444l2.048 2.104889-0.113777 2.844444v1.251556c0 0.284444 0.113778 0.625778 0.341333 0.853333l1.422222 2.275556 2.275556 2.787555 4.949333 7.054223a1.649778 1.649778 0 0 0 0.568889 0.455111l2.901333 2.275555 2.332445 2.901334 0.227555 0.341333 0.853334 0.682667 0.341333 0.227555 0.398222 0.341334a1.024 1.024 0 0 0 0.568889 0.227555l6.997333 4.039111 2.332445 5.973334c0.113778 0.056889 0.455111 4.209778 0.796444 4.209777h0.568889c1.024 0 2.218667 0.398222 3.185778 0H577.080889c0.056889 0 0.455111 0.398222 0.568889 0.284445l7.054222-0.284445h0.568889l0.967111-5.461333c0.227556 0 0.341333-2.730667 0.455111-2.787556l3.015111-3.015111 3.242667-0.682666 1.991111-0.796445 1.649778 4.494222c0.341333 0.739556 1.024 1.137778 1.706666 1.024l5.518223-0.512 2.275555 3.185778 0.341334 0.796445-4.266667 9.159111a1.592889 1.592889 0 0 0 0 1.251555l3.640889 9.329778 8.021333 2.048 7.338667 1.934222v0.739556z m31.004444-121.059556a1.592889 1.592889 0 0 0-1.820444 0.625778l-1.080889 1.649778-5.973333-2.275556-0.739556-0.113777-2.332444 0.056888-0.568889-0.796444a2.218667 2.218667 0 0 0-1.137778-0.682667c-2.048-0.341333-3.584-0.341333-5.063111-0.341333l-0.682667 0.056889-0.512 0.227555-1.536 0.967112c-0.341333 0.227556-0.625778 0.625778-0.625778 1.024l-0.568889 2.901333-6.883555-3.925333-0.568889-0.284445-7.452444-1.820444-2.389334-0.796445c0.170667-0.341333 0.341333-0.625778 0.227556-0.967111a30.094222 30.094222 0 0 0-0.512-4.323555l0.739555 1.763555c0.284444 0.284444 0.398222 0.739556 0.568889 1.194667 0.625778 0.967111 1.422222 1.137778 1.706667 1.194666h0.568889c1.024-0.113778 1.194667-0.398222 2.730666-2.901333a0.455111 0.455111 0 0 0 0.284445-0.455111c0.113778-0.284444 0.113778-0.739556 0.113778-0.910222-0.056889-0.341333-0.113778-0.682667-0.398223-0.967111a1.877333 1.877333 0 0 0 1.251556-1.877334v-2.730666c0.398222-0.056889 0.853333-0.455111 1.024-0.853334l1.479111-3.072a1.877333 1.877333 0 0 0 0-1.365333l-0.455111-0.853333h0.170667a1.820444 1.820444 0 0 0 1.137777-0.341334l0.398223 0.853334a3.128889 3.128889 0 0 0 0.341333 0.455111l0.568889 0.398222c0.284444 0.227556 0.568889 0.341333 0.853333 0.455111l1.991111 2.56c0.170667 0.284444 0.568889 0.512 0.910223 0.625778a1.706667 1.706667 0 0 0 0.625777 0.113778l0.056889 0.170666a16.156444 16.156444 0 0 1 1.194667 2.218667l0.682667 1.080889c0.170667 0.284444 0.398222 0.568889 0.739555 0.739555l0.398222 0.170667c0.284444 0.113778 0.568889 0.227556 0.910223 0.227556h1.365333v0.682666l1.137778 2.161778c0.512 0.853333 0.512 0.853333 7.054222 2.218667h0.227555c1.820444-0.170667 1.763556-1.592889 1.592889-4.323556l0.625778 0.568889c0.341333 0.398222 0.910222 0.568889 1.365333 0.398222l3.242667-0.853333a1.536 1.536 0 0 0 0.682667-0.170667l0.227555 0.056889c-0.227556 0.227556-0.455111 0.568889-0.455111 0.853334-0.170667 0.739556 0.170667 1.592889 0.796445 2.161777l2.503111 1.536 0.455111 0.113778 0.113778 0.113778c0.398222 0 0.967111-0.056889 1.194666-0.170667s0.625778-0.284444 0.739556-0.455111l0.739555-1.024 0.568889 1.991111-0.227555 6.428445-4.323556-1.365334z" p-id="7301" fill="#ffffff"></path><path d="M475.363556 206.165333v0.056889c0 0.227556 1.137778 0.455111 1.877333 0.682667 0.625778-0.910222 1.194667-1.763556 1.592889-2.218667l-0.853334 0.227556c0 0.284444-2.616889 1.080889-2.616888 1.251555zM373.077333 358.456889l0.056889-0.113778-1.194666 0.056889 0.113777 2.503111 0.227556 3.527111 1.024-0.170666c-0.113778-3.128889-0.341333-5.802667-0.227556-5.802667z" p-id="7302" fill="#ffffff"></path><path d="M494.421333 637.326222h-384.739555a36.579556 36.579556 0 0 1-36.579556-36.579555v-438.784c0-20.195556 16.384-36.579556 36.579556-36.579556h804.636444c20.195556 0 36.579556 16.384 36.579556 36.579556v336.213333c27.875556 18.432 52.508444 41.244444 73.159111 67.413333v-403.626666a109.795556 109.795556 0 0 0-109.738667-109.738667H109.681778A109.738667 109.738667 0 0 0 0 161.962667v438.784c0 60.643556 49.152 109.738667 109.681778 109.738666h364.373333c3.811556-25.486222 10.695111-50.062222 20.366222-73.159111z" p-id="7303" fill="#ffffff"></path><path d="M938.951111 733.582222l56.490667-35.555555-20.992-51.143111-64.796445 15.075555a157.696 157.696 0 0 0-33.507555-33.905778l14.791111-64.796444-51.086222-21.333333-34.872889 56.092444a159.516444 159.516444 0 0 0-47.672889-0.341333l-34.759111-56.149334-51.143111 20.935111 13.994666 64.568889a158.72 158.72 0 0 0-34.019555 33.621334l-64.113778-15.189334-21.333333 50.972445 55.466666 35.783111a158.321778 158.321778 0 0 0-0.056889 47.786667l-56.092444 34.588444 20.935111 51.256889 64.682667-14.108445c9.386667 12.686222 20.536889 24.007111 33.564444 33.735112l-15.132444 64.512 50.972444 21.219555 36.010667-55.864889c15.815111 2.389333 31.971556 2.332444 47.445333-0.113778l35.555556 56.433778 51.086222-20.992-15.075556-64.853333c12.686222-9.272889 23.950222-20.48 33.507556-33.393778l65.194667 14.791111 21.276444-50.972444-56.547555-35.328a160.995556 160.995556 0 0 0 0.227555-47.331556z m-63.943111 62.748445a102.4 102.4 0 1 1-189.155556-79.189334 102.4 102.4 0 0 1 189.155556 79.189334zM471.836444 783.587556h-142.734222a36.579556 36.579556 0 0 0 0 73.216h158.151111a312.092444 312.092444 0 0 1-15.416889-73.216z" p-id="7304" fill="#ffffff"></path></svg>